# Blender v2.79 (sub 0) OBJ File: 'debris.blend'
# www.blender.org
mtllib debris.mtl
o Cube
v -1.000000 -1.000000 1.000000
v -1.000000 1.000000 1.000000
v -1.000000 -1.000000 -1.000000
v -1.000000 1.000000 -1.000000
v 1.000000 -1.000000 1.000000
v 1.000000 1.000000 1.000000
v 1.000000 -1.000000 -1.000000
v 1.000000 1.000000 -1.000000
v -4.000000 -0.900000 -0.900000
v -4.000000 -0.900000 0.900000
v -4.000000 0.900000 0.900000
v -4.000000 0.900000 -0.900000
v 4.000000 0.900000 -0.900000
v 4.000000 -0.900000 -0.900000
v 4.000000 -0.900000 0.900000
v 4.000000 0.900000 0.900000
v -0.900000 -0.900000 4.000000
v -0.900000 0.900000 4.000000
v -0.900000 0.900000 -4.000000
v -0.900000 -0.900000 -4.000000
v 0.900000 -0.900000 -4.000000
v 0.900000 0.900000 -4.000000
v 0.900000 0.900000 4.000000
v 0.900000 -0.900000 4.000000
v -0.900000 -4.000000 -0.900000
v -0.900000 -4.000000 0.900000
v -0.900000 4.000000 0.900000
v -0.900000 4.000000 -0.900000
v 0.900000 -4.000000 -0.900000
v 0.900000 4.000000 -0.900000
v 0.900000 -4.000000 0.900000
v 0.900000 4.000000 0.900000
v -4.000000 -1.000000 -1.000000
v -4.000000 -1.000000 1.000000
v -4.000000 1.000000 1.000000
v -4.000000 1.000000 -1.000000
v 4.000000 1.000000 -1.000000
v 4.000000 -1.000000 -1.000000
v 4.000000 -1.000000 1.000000
v 4.000000 1.000000 1.000000
v -1.000000 -1.000000 4.000000
v -1.000000 1.000000 4.000000
v -1.000000 1.000000 -4.000000
v -1.000000 -1.000000 -4.000000
v 1.000000 -1.000000 -4.000000
v 1.000000 1.000000 -4.000000
v 1.000000 1.000000 4.000000
v 1.000000 -1.000000 4.000000
v -1.000000 -4.000000 -1.000000
v -1.000000 -4.000000 1.000000
v -1.000000 4.000000 1.000000
v -1.000000 4.000000 -1.000000
v 1.000000 -4.000000 -1.000000
v 1.000000 4.000000 -1.000000
v 1.000000 -4.000000 1.000000
v 1.000000 4.000000 1.000000
v -0.900000 -0.900000 0.900000
v -0.900000 0.900000 0.900000
v -0.900000 -0.900000 -0.900000
v -0.900000 0.900000 -0.900000
v 0.900000 -0.900000 0.900000
v 0.900000 0.900000 0.900000
v 0.900000 -0.900000 -0.900000
v 0.900000 0.900000 -0.900000
vn 0.0000 0.0000 -1.0000
vn -1.0000 0.0000 0.0000
vn 0.0000 -1.0000 0.0000
vn 0.0000 1.0000 0.0000
vn 0.0000 0.0000 1.0000
vn 1.0000 0.0000 0.0000
usemtl None
s off
f 4//1 3//1 33//1 36//1
f 3//2 4//2 43//2 44//2
f 5//3 7//3 38//3 39//3
f 4//4 8//4 46//4 43//4
f 1//2 3//2 49//2 50//2
f 2//5 6//5 56//5 51//5
f 1//5 2//5 35//5 34//5
f 8//4 6//4 40//4 37//4
f 7//1 8//1 37//1 38//1
f 2//4 4//4 36//4 35//4
f 3//3 1//3 34//3 33//3
f 6//5 5//5 39//5 40//5
f 10//4 57//4 59//4 9//4
f 11//1 58//1 57//1 10//1
f 2//2 1//2 41//2 42//2
f 1//3 5//3 48//3 41//3
f 8//6 7//6 45//6 46//6
f 7//3 3//3 44//3 45//3
f 6//4 2//4 42//4 47//4
f 5//6 6//6 47//6 48//6
f 12//3 60//3 58//3 11//3
f 9//5 59//5 60//5 12//5
f 7//6 5//6 55//6 53//6
f 8//1 4//1 52//1 54//1
f 5//5 1//5 50//5 55//5
f 6//6 8//6 54//6 56//6
f 3//1 7//1 53//1 49//1
f 4//2 2//2 51//2 52//2
f 10//2 9//2 33//2 34//2
f 11//2 10//2 34//2 35//2
f 12//2 11//2 35//2 36//2
f 9//2 12//2 36//2 33//2
f 13//6 14//6 38//6 37//6
f 14//6 15//6 39//6 38//6
f 16//6 13//6 37//6 40//6
f 15//6 16//6 40//6 39//6
f 17//5 18//5 42//5 41//5
f 19//1 20//1 44//1 43//1
f 20//1 21//1 45//1 44//1
f 22//1 19//1 43//1 46//1
f 21//1 22//1 46//1 45//1
f 23//5 24//5 48//5 47//5
f 24//5 17//5 41//5 48//5
f 18//5 23//5 47//5 42//5
f 25//3 26//3 50//3 49//3
f 27//4 28//4 52//4 51//4
f 29//3 25//3 49//3 53//3
f 28//4 30//4 54//4 52//4
f 31//3 29//3 53//3 55//3
f 30//4 32//4 56//4 54//4
f 26//3 31//3 55//3 50//3
f 32//4 27//4 51//4 56//4
f 18//3 58//3 62//3 23//3
f 23//2 62//2 61//2 24//2
f 24//4 61//4 57//4 17//4
f 17//6 57//6 58//6 18//6
f 14//4 63//4 61//4 15//4
f 15//1 61//1 62//1 16//1
f 16//3 62//3 64//3 13//3
f 13//5 64//5 63//5 14//5
f 20//4 59//4 63//4 21//4
f 21//2 63//2 64//2 22//2
f 22//3 64//3 60//3 19//3
f 19//6 60//6 59//6 20//6
f 28//5 60//5 64//5 30//5
f 30//2 64//2 62//2 32//2
f 32//1 62//1 58//1 27//1
f 27//6 58//6 60//6 28//6
f 26//1 57//1 61//1 31//1
f 31//2 61//2 63//2 29//2
f 29//5 63//5 59//5 25//5
f 25//6 59//6 57//6 26//6
